<?xml version="1.0" encoding="UTF-8" standalone="no"?>
<!-- Created with Inkscape (http://www.inkscape.org/) -->
<svg
   xmlns:dc="http://purl.org/dc/elements/1.1/"
   xmlns:cc="http://creativecommons.org/ns#"
   xmlns:rdf="http://www.w3.org/1999/02/22-rdf-syntax-ns#"
   xmlns:svg="http://www.w3.org/2000/svg"
   xmlns="http://www.w3.org/2000/svg"
   xmlns:xlink="http://www.w3.org/1999/xlink"
   xmlns:sodipodi="http://sodipodi.sourceforge.net/DTD/sodipodi-0.dtd"
   xmlns:inkscape="http://www.inkscape.org/namespaces/inkscape"
   width="48"
   height="48"
   id="svg2"
   sodipodi:version="0.32"
   inkscape:version="0.46"
   version="1.0"
   sodipodi:docname="monoworks-icon.svg"
   inkscape:output_extension="org.inkscape.output.svg.inkscape"
   inkscape:export-filename="/home/andy/Mono/MonoWorks/Resources/svg/monoworks16.png"
   inkscape:export-xdpi="30"
   inkscape:export-ydpi="30">
  <defs
     id="defs4">
    <linearGradient
       id="linearGradient3506">
      <stop
         style="stop-color:#00aa13;stop-opacity:1;"
         offset="0"
         id="stop3508" />
      <stop
         id="stop3514"
         offset="0.5"
         style="stop-color:#008d10;stop-opacity:1;" />
      <stop
         style="stop-color:#00ca17;stop-opacity:1;"
         offset="0.5"
         id="stop3516" />
      <stop
         style="stop-color:#009f13;stop-opacity:1;"
         offset="1"
         id="stop3510" />
    </linearGradient>
    <inkscape:path-effect
       effect="skeletal"
       id="path-effect3499"
       prop_scale="1" />
    <inkscape:perspective
       sodipodi:type="inkscape:persp3d"
       inkscape:vp_x="0 : 526.18109 : 1"
       inkscape:vp_y="0 : 1000 : 0"
       inkscape:vp_z="744.09448 : 526.18109 : 1"
       inkscape:persp3d-origin="372.04724 : 350.78739 : 1"
       id="perspective10" />
    <linearGradient
       inkscape:collect="always"
       xlink:href="#linearGradient3506"
       id="linearGradient3512"
       x1="24.025946"
       y1="45.846485"
       x2="24.025946"
       y2="1.8940541"
       gradientUnits="userSpaceOnUse" />
  </defs>
  <sodipodi:namedview
     id="base"
     pagecolor="#ffffff"
     bordercolor="#666666"
     borderopacity="1.0"
     gridtolerance="10000"
     guidetolerance="10"
     objecttolerance="10"
     inkscape:pageopacity="0.0"
     inkscape:pageshadow="2"
     inkscape:zoom="19.270833"
     inkscape:cx="24"
     inkscape:cy="24"
     inkscape:document-units="px"
     inkscape:current-layer="layer1"
     showgrid="false"
     inkscape:window-width="1866"
     inkscape:window-height="1150"
     inkscape:window-x="54"
     inkscape:window-y="25"
     showguides="true"
     inkscape:guide-bbox="true">
    <sodipodi:guide
       orientation="1,0"
       position="24.025946,48.103784"
       id="guide3184" />
    <sodipodi:guide
       orientation="0,1"
       position="-0.67459459,23.974054"
       id="guide3186" />
    <sodipodi:guide
       orientation="0,1"
       position="1.3491892,18.214054"
       id="guide3461" />
  </sodipodi:namedview>
  <metadata
     id="metadata7">
    <rdf:RDF>
      <cc:Work
         rdf:about="">
        <dc:format>image/svg+xml</dc:format>
        <dc:type
           rdf:resource="http://purl.org/dc/dcmitype/StillImage" />
      </cc:Work>
    </rdf:RDF>
  </metadata>
  <g
     inkscape:label="base"
     inkscape:groupmode="layer"
     id="layer1"
     style="display:inline">
    <path
       style="fill:url(#linearGradient3512);fill-opacity:1;stroke:none;stroke-width:1;stroke-linecap:round;stroke-linejoin:bevel;stroke-miterlimit:4;stroke-dasharray:none;stroke-opacity:1"
       d="M 14 2 C 7.352 2 2 7.352 2 14 L 2 34 C 2 39.284649 5.398498 43.73438 10.125 45.34375 L 14.6875 35.96875 C 9.8445297 31.190822 9.7399944 23.573661 13.90625 18.125 C 15.996018 15.391986 18.921672 13.763549 22.03125 13.25 L 22.03125 10.28125 L 22.03125 8.28125 L 26.03125 8.28125 L 26.03125 10.28125 L 26.03125 13.25 C 28.25514 13.589517 30.423646 14.464624 32.28125 16.03125 C 37.862487 20.738235 38.710995 29.228378 34.25 35.0625 C 33.91387 35.502092 33.651492 35.686078 33.375 35.9375 L 37.96875 45.3125 C 42.647124 43.67681 46 39.250332 46 34 L 46 14 C 46 7.352 40.648 2 34 2 L 14 2 z M 23.9375 17 C 21.363847 17.033194 18.840958 18.236619 17.0625 20.5625 C 14.284698 24.19533 14.197963 28.65989 16.625 31.96875 L 17.65625 29.84375 L 18.53125 28.0625 L 22.125 29.78125 L 21.25 31.59375 L 14.25 46 L 33.84375 46 L 26.8125 31.59375 L 25.9375 29.8125 L 29.53125 28.03125 L 30.40625 29.84375 L 31.4375 31.9375 C 34.073502 27.834368 33.400212 22.224899 29.6875 19.09375 C 27.97638 17.650663 25.93923 16.974182 23.9375 17 z "
       id="rect3153" />
  </g>
</svg>
